<mxfile modified="2021-01-26T11:11:22.295Z" host="app.diagrams.net" agent="5.0 (Windows NT 10.0; Win64; x64) AppleWebKit/537.36 (KHTML, like Gecko) Chrome/87.0.4280.141 Safari/537.36" etag="viRXctrzicgmJoQkDRVE" version="13.7.5" type="github">
  <diagram id="6a731a19-8d31-9384-78a2-239565b7b9f0" name="Page-1">
    <mxGraphModel dx="1422" dy="794" grid="1" gridSize="10" guides="1" tooltips="1" connect="1" arrows="1" fold="1" page="1" pageScale="1" pageWidth="1169" pageHeight="827" background="#ffffff" math="0" shadow="0">
      <root>
        <mxCell id="0" />
        <mxCell id="1" parent="0" />
        <mxCell id="1748" value="" style="edgeStyle=elbowEdgeStyle;rounded=1;jumpStyle=none;html=1;shadow=0;labelBackgroundColor=none;startArrow=classic;startFill=1;endArrow=classic;endFill=1;jettySize=auto;orthogonalLoop=1;strokeColor=#000000;strokeWidth=2;fontFamily=Helvetica;fontSize=16;fontColor=#23445D;spacing=5;entryX=0;entryY=0.5;entryDx=0;entryDy=0;exitX=0;exitY=0.5;exitDx=0;exitDy=0;" parent="1" source="1749" target="1753" edge="1">
          <mxGeometry relative="1" as="geometry">
            <mxPoint x="113.5" y="136" as="sourcePoint" />
            <Array as="points">
              <mxPoint x="40" y="160" />
              <mxPoint x="33.5" y="176" />
            </Array>
          </mxGeometry>
        </mxCell>
        <mxCell id="prWOM2Fcv-6kMDtfhxvp-1800" style="edgeStyle=orthogonalEdgeStyle;rounded=1;orthogonalLoop=1;jettySize=auto;html=1;exitX=1;exitY=0.5;exitDx=0;exitDy=0;entryX=0.5;entryY=0;entryDx=0;entryDy=0;endArrow=classic;endFill=1;strokeWidth=2;" parent="1" source="1749" target="prWOM2Fcv-6kMDtfhxvp-1799" edge="1">
          <mxGeometry relative="1" as="geometry">
            <Array as="points">
              <mxPoint x="366" y="95" />
            </Array>
          </mxGeometry>
        </mxCell>
        <mxCell id="1749" value="Main&lt;br style=&quot;font-size: 15px&quot;&gt;&lt;span style=&quot;font-size: 12px ; font-weight: 400&quot;&gt;главная страница с адаптивным баннером на весь экран, футер с картой сайта, анимация с ссылками&amp;nbsp;на основные разделы&lt;/span&gt;" style="rounded=1;whiteSpace=wrap;html=1;shadow=0;labelBackgroundColor=none;strokeColor=#000000;strokeWidth=2;fillColor=#2F5B7C;fontFamily=Helvetica;fontSize=15;fontColor=#FFFFFF;align=center;fontStyle=1;spacing=0;arcSize=7;perimeterSpacing=2;" parent="1" vertex="1">
          <mxGeometry x="72" y="19" width="148" height="152" as="geometry" />
        </mxCell>
        <mxCell id="V0S4Sb7-uBsaVgJkaVNg-1784" value="" style="edgeStyle=elbowEdgeStyle;rounded=1;orthogonalLoop=1;jettySize=auto;html=1;strokeColor=#000000;strokeWidth=2;fontSize=14;endArrow=none;endFill=0;" parent="1" source="1753" target="V0S4Sb7-uBsaVgJkaVNg-1783" edge="1">
          <mxGeometry relative="1" as="geometry" />
        </mxCell>
        <mxCell id="1753" value="About&lt;br&gt;&lt;span style=&quot;font-size: 12px ; font-weight: 400&quot;&gt;информация обо мне, контакты, благодарности&lt;/span&gt;" style="rounded=1;whiteSpace=wrap;html=1;shadow=0;labelBackgroundColor=none;strokeColor=#000000;strokeWidth=2;fillColor=#e85642;fontFamily=Helvetica;fontSize=14;fontColor=#FFFFFF;align=center;spacing=5;fontStyle=1;arcSize=7;perimeterSpacing=2;" parent="1" vertex="1">
          <mxGeometry x="72" y="190" width="150" height="65" as="geometry" />
        </mxCell>
        <mxCell id="V0S4Sb7-uBsaVgJkaVNg-1783" value="Форма связи" style="rounded=1;whiteSpace=wrap;html=1;shadow=0;labelBackgroundColor=none;strokeColor=#000000;strokeWidth=2;fillColor=#F19C99;fontFamily=Helvetica;fontSize=14;fontColor=#FFFFFF;align=center;spacing=5;fontStyle=1;arcSize=7;perimeterSpacing=2;" parent="1" vertex="1">
          <mxGeometry x="290" y="217.5" width="150" height="65" as="geometry" />
        </mxCell>
        <mxCell id="1757" value="" style="edgeStyle=elbowEdgeStyle;jumpStyle=none;html=1;shadow=0;labelBackgroundColor=none;startArrow=none;startFill=0;endArrow=classic;endFill=1;jettySize=auto;orthogonalLoop=1;strokeColor=#000000;strokeWidth=2;fontFamily=Helvetica;fontSize=14;fontColor=#FFFFFF;spacing=5;exitX=0.5;exitY=1;exitDx=0;exitDy=0;entryX=0;entryY=0.5;entryDx=0;entryDy=0;rounded=1;" parent="1" source="1760" target="1763" edge="1">
          <mxGeometry relative="1" as="geometry">
            <Array as="points">
              <mxPoint x="147" y="449" />
              <mxPoint x="413.5" y="456" />
            </Array>
          </mxGeometry>
        </mxCell>
        <mxCell id="1758" value="" style="edgeStyle=elbowEdgeStyle;jumpStyle=none;html=1;shadow=0;labelBackgroundColor=none;startArrow=none;startFill=0;endArrow=classic;endFill=1;jettySize=auto;orthogonalLoop=1;strokeColor=#000000;strokeWidth=2;fontFamily=Helvetica;fontSize=14;fontColor=#FFFFFF;spacing=5;entryX=0;entryY=0.5;entryDx=0;entryDy=0;exitX=0.5;exitY=1;exitDx=0;exitDy=0;rounded=1;" parent="1" source="1760" target="1762" edge="1">
          <mxGeometry relative="1" as="geometry">
            <Array as="points">
              <mxPoint x="147.5" y="446" />
            </Array>
          </mxGeometry>
        </mxCell>
        <mxCell id="1759" value="" style="edgeStyle=elbowEdgeStyle;jumpStyle=none;html=1;shadow=0;labelBackgroundColor=none;startArrow=none;startFill=0;endArrow=classic;endFill=1;jettySize=auto;orthogonalLoop=1;strokeColor=#000000;strokeWidth=2;fontFamily=Helvetica;fontSize=14;fontColor=#FFFFFF;spacing=5;exitX=0.5;exitY=1;exitDx=0;exitDy=0;entryX=0;entryY=0.5;entryDx=0;entryDy=0;rounded=1;" parent="1" source="1760" target="1761" edge="1">
          <mxGeometry relative="1" as="geometry">
            <Array as="points">
              <mxPoint x="147.5" y="360" />
              <mxPoint x="243.5" y="366" />
              <mxPoint x="203.5" y="396" />
              <mxPoint x="223.5" y="396" />
              <mxPoint x="233.5" y="396" />
              <mxPoint x="273.5" y="356" />
            </Array>
          </mxGeometry>
        </mxCell>
        <mxCell id="V0S4Sb7-uBsaVgJkaVNg-1788" style="edgeStyle=elbowEdgeStyle;rounded=1;jumpStyle=none;orthogonalLoop=1;jettySize=auto;html=1;exitX=1;exitY=0.5;exitDx=0;exitDy=0;entryX=1;entryY=0.25;entryDx=0;entryDy=0;endArrow=classic;endFill=1;strokeColor=#000000;strokeWidth=2;fontSize=14;startArrow=classic;startFill=1;" parent="1" source="1760" target="1749" edge="1">
          <mxGeometry relative="1" as="geometry">
            <Array as="points">
              <mxPoint x="470" y="160" />
              <mxPoint x="520" y="70" />
              <mxPoint x="520" y="250" />
              <mxPoint x="293.5" y="266" />
            </Array>
          </mxGeometry>
        </mxCell>
        <mxCell id="prWOM2Fcv-6kMDtfhxvp-1784" style="edgeStyle=orthogonalEdgeStyle;orthogonalLoop=1;jettySize=auto;html=1;exitX=0.5;exitY=1;exitDx=0;exitDy=0;entryX=0;entryY=0.5;entryDx=0;entryDy=0;endArrow=classic;endFill=1;strokeWidth=2;rounded=1;" parent="1" source="1760" target="prWOM2Fcv-6kMDtfhxvp-1779" edge="1">
          <mxGeometry relative="1" as="geometry">
            <Array as="points">
              <mxPoint x="147" y="599" />
            </Array>
          </mxGeometry>
        </mxCell>
        <mxCell id="1760" value="Расчеты&lt;br&gt;&lt;font style=&quot;font-size: 12px ; font-weight: normal&quot;&gt;основной список без подразделов&lt;/font&gt;" style="rounded=1;whiteSpace=wrap;html=1;shadow=0;labelBackgroundColor=none;strokeColor=#000000;strokeWidth=2;fillColor=#1699d3;fontFamily=Helvetica;fontSize=14;fontColor=#FFFFFF;align=center;spacing=5;fontStyle=1;arcSize=7;perimeterSpacing=2;" parent="1" vertex="1">
          <mxGeometry x="72" y="285" width="150" height="60" as="geometry" />
        </mxCell>
        <mxCell id="prWOM2Fcv-6kMDtfhxvp-1822" style="edgeStyle=orthogonalEdgeStyle;rounded=1;comic=0;orthogonalLoop=1;jettySize=auto;html=1;exitX=1;exitY=0.5;exitDx=0;exitDy=0;entryX=1;entryY=0.5;entryDx=0;entryDy=0;startArrow=none;startFill=0;sourcePerimeterSpacing=0;endArrow=none;endFill=0;strokeWidth=2;" parent="1" source="1761" target="prWOM2Fcv-6kMDtfhxvp-1779" edge="1">
          <mxGeometry relative="1" as="geometry">
            <Array as="points">
              <mxPoint x="420" y="360" />
              <mxPoint x="420" y="600" />
            </Array>
          </mxGeometry>
        </mxCell>
        <mxCell id="prWOM2Fcv-6kMDtfhxvp-1824" style="edgeStyle=orthogonalEdgeStyle;rounded=1;comic=0;orthogonalLoop=1;jettySize=auto;html=1;exitX=1;exitY=0.5;exitDx=0;exitDy=0;entryX=0;entryY=0.5;entryDx=0;entryDy=0;startArrow=none;startFill=0;sourcePerimeterSpacing=0;endArrow=classic;endFill=1;strokeWidth=2;" parent="1" source="1761" target="V0S4Sb7-uBsaVgJkaVNg-1811" edge="1">
          <mxGeometry relative="1" as="geometry">
            <Array as="points">
              <mxPoint x="490" y="360" />
              <mxPoint x="490" y="282" />
            </Array>
          </mxGeometry>
        </mxCell>
        <mxCell id="prWOM2Fcv-6kMDtfhxvp-1825" style="edgeStyle=orthogonalEdgeStyle;rounded=1;comic=0;orthogonalLoop=1;jettySize=auto;html=1;exitX=1;exitY=0.5;exitDx=0;exitDy=0;entryX=0;entryY=0.5;entryDx=0;entryDy=0;startArrow=none;startFill=0;sourcePerimeterSpacing=0;endArrow=classic;endFill=1;strokeWidth=2;" parent="1" source="1761" target="V0S4Sb7-uBsaVgJkaVNg-1797" edge="1">
          <mxGeometry relative="1" as="geometry" />
        </mxCell>
        <mxCell id="prWOM2Fcv-6kMDtfhxvp-1826" style="edgeStyle=orthogonalEdgeStyle;rounded=1;comic=0;orthogonalLoop=1;jettySize=auto;html=1;exitX=1;exitY=0.5;exitDx=0;exitDy=0;entryX=0;entryY=0.5;entryDx=0;entryDy=0;startArrow=none;startFill=0;sourcePerimeterSpacing=0;endArrow=classic;endFill=1;strokeWidth=2;" parent="1" source="1761" target="prWOM2Fcv-6kMDtfhxvp-1804" edge="1">
          <mxGeometry relative="1" as="geometry">
            <Array as="points">
              <mxPoint x="490" y="360" />
              <mxPoint x="490" y="440" />
            </Array>
          </mxGeometry>
        </mxCell>
        <mxCell id="prWOM2Fcv-6kMDtfhxvp-1827" style="edgeStyle=orthogonalEdgeStyle;rounded=1;comic=0;orthogonalLoop=1;jettySize=auto;html=1;exitX=1;exitY=0.5;exitDx=0;exitDy=0;entryX=0;entryY=0.5;entryDx=0;entryDy=0;startArrow=none;startFill=0;sourcePerimeterSpacing=0;endArrow=classic;endFill=1;strokeWidth=2;" parent="1" source="1761" target="prWOM2Fcv-6kMDtfhxvp-1806" edge="1">
          <mxGeometry relative="1" as="geometry">
            <Array as="points">
              <mxPoint x="490" y="360" />
              <mxPoint x="490" y="520" />
            </Array>
          </mxGeometry>
        </mxCell>
        <mxCell id="prWOM2Fcv-6kMDtfhxvp-1828" style="edgeStyle=orthogonalEdgeStyle;rounded=1;comic=0;orthogonalLoop=1;jettySize=auto;html=1;exitX=1;exitY=0.5;exitDx=0;exitDy=0;startArrow=none;startFill=0;sourcePerimeterSpacing=0;endArrow=classic;endFill=1;strokeWidth=2;entryX=0;entryY=0.5;entryDx=0;entryDy=0;" parent="1" source="1761" target="prWOM2Fcv-6kMDtfhxvp-1807" edge="1">
          <mxGeometry relative="1" as="geometry">
            <mxPoint x="460" y="540" as="targetPoint" />
            <Array as="points">
              <mxPoint x="490" y="360" />
              <mxPoint x="490" y="600" />
            </Array>
          </mxGeometry>
        </mxCell>
        <mxCell id="prWOM2Fcv-6kMDtfhxvp-1831" style="edgeStyle=orthogonalEdgeStyle;rounded=1;comic=0;orthogonalLoop=1;jettySize=auto;html=1;exitX=1;exitY=0.5;exitDx=0;exitDy=0;entryX=0;entryY=0.5;entryDx=0;entryDy=0;startArrow=none;startFill=0;sourcePerimeterSpacing=0;endArrow=classic;endFill=1;strokeWidth=2;" parent="1" source="1761" target="prWOM2Fcv-6kMDtfhxvp-1829" edge="1">
          <mxGeometry relative="1" as="geometry">
            <Array as="points">
              <mxPoint x="490" y="360" />
              <mxPoint x="490" y="201" />
            </Array>
          </mxGeometry>
        </mxCell>
        <mxCell id="prWOM2Fcv-6kMDtfhxvp-1834" style="edgeStyle=orthogonalEdgeStyle;rounded=1;comic=0;orthogonalLoop=1;jettySize=auto;html=1;exitX=1;exitY=0.5;exitDx=0;exitDy=0;entryX=0;entryY=0.5;entryDx=0;entryDy=0;startArrow=none;startFill=0;sourcePerimeterSpacing=0;endArrow=classic;endFill=1;strokeWidth=2;" parent="1" source="1761" target="prWOM2Fcv-6kMDtfhxvp-1832" edge="1">
          <mxGeometry relative="1" as="geometry">
            <Array as="points">
              <mxPoint x="490" y="360" />
              <mxPoint x="490" y="120" />
            </Array>
          </mxGeometry>
        </mxCell>
        <mxCell id="1761" value="Причальное вертикальное" style="rounded=1;whiteSpace=wrap;html=1;shadow=0;labelBackgroundColor=none;strokeColor=#000000;strokeWidth=2;fillColor=#64bbe2;fontFamily=Helvetica;fontSize=14;fontColor=#FFFFFF;align=center;spacing=5;arcSize=7;perimeterSpacing=2;" parent="1" vertex="1">
          <mxGeometry x="235" y="329.5" width="150" height="60" as="geometry" />
        </mxCell>
        <mxCell id="V0S4Sb7-uBsaVgJkaVNg-1797" value="Отметка дна" style="rounded=1;whiteSpace=wrap;html=1;shadow=0;labelBackgroundColor=none;strokeColor=#000000;strokeWidth=2;fillColor=#6CCBF5;fontFamily=Helvetica;fontSize=14;fontColor=#FFFFFF;align=center;spacing=5;arcSize=7;perimeterSpacing=2;" parent="1" vertex="1">
          <mxGeometry x="515.5" y="329.5" width="150" height="60" as="geometry" />
        </mxCell>
        <mxCell id="prWOM2Fcv-6kMDtfhxvp-1804" value="Распределительный пояс+болты" style="rounded=1;whiteSpace=wrap;html=1;shadow=0;labelBackgroundColor=none;strokeColor=#000000;strokeWidth=2;fillColor=#6CCBF5;fontFamily=Helvetica;fontSize=14;fontColor=#FFFFFF;align=center;spacing=5;arcSize=7;perimeterSpacing=2;" parent="1" vertex="1">
          <mxGeometry x="515.5" y="409.5" width="150" height="60" as="geometry" />
        </mxCell>
        <mxCell id="prWOM2Fcv-6kMDtfhxvp-1785" style="edgeStyle=orthogonalEdgeStyle;rounded=1;orthogonalLoop=1;jettySize=auto;html=1;exitX=1;exitY=0.5;exitDx=0;exitDy=0;entryX=1;entryY=0.5;entryDx=0;entryDy=0;endArrow=none;endFill=0;strokeWidth=2;" parent="1" source="V0S4Sb7-uBsaVgJkaVNg-1811" target="V0S4Sb7-uBsaVgJkaVNg-1797" edge="1">
          <mxGeometry relative="1" as="geometry">
            <Array as="points">
              <mxPoint x="683" y="282" />
              <mxPoint x="683" y="360" />
            </Array>
          </mxGeometry>
        </mxCell>
        <mxCell id="prWOM2Fcv-6kMDtfhxvp-1788" style="edgeStyle=orthogonalEdgeStyle;rounded=1;orthogonalLoop=1;jettySize=auto;html=1;exitX=1;exitY=0.5;exitDx=0;exitDy=0;entryX=0;entryY=0.5;entryDx=0;entryDy=0;endArrow=classic;endFill=1;strokeWidth=2;" parent="1" source="V0S4Sb7-uBsaVgJkaVNg-1811" target="prWOM2Fcv-6kMDtfhxvp-1786" edge="1">
          <mxGeometry relative="1" as="geometry" />
        </mxCell>
        <mxCell id="prWOM2Fcv-6kMDtfhxvp-1789" style="edgeStyle=orthogonalEdgeStyle;rounded=1;orthogonalLoop=1;jettySize=auto;html=1;exitX=1;exitY=0.25;exitDx=0;exitDy=0;entryX=0;entryY=0.5;entryDx=0;entryDy=0;endArrow=classic;endFill=1;strokeWidth=2;" parent="1" source="V0S4Sb7-uBsaVgJkaVNg-1811" target="prWOM2Fcv-6kMDtfhxvp-1787" edge="1">
          <mxGeometry relative="1" as="geometry">
            <Array as="points">
              <mxPoint x="700" y="267" />
              <mxPoint x="700" y="201" />
            </Array>
          </mxGeometry>
        </mxCell>
        <mxCell id="V0S4Sb7-uBsaVgJkaVNg-1811" value="Отметка кордона" style="rounded=1;whiteSpace=wrap;html=1;shadow=0;labelBackgroundColor=none;strokeColor=#000000;strokeWidth=2;fillColor=#6CCBF5;fontFamily=Helvetica;fontSize=14;fontColor=#FFFFFF;align=center;spacing=5;arcSize=7;perimeterSpacing=2;" parent="1" vertex="1">
          <mxGeometry x="515.5" y="252" width="150" height="60" as="geometry" />
        </mxCell>
        <mxCell id="prWOM2Fcv-6kMDtfhxvp-1829" value="Нагрузка ледовая" style="rounded=1;whiteSpace=wrap;html=1;shadow=0;labelBackgroundColor=none;strokeColor=#000000;strokeWidth=2;fillColor=#6CCBF5;fontFamily=Helvetica;fontSize=14;fontColor=#FFFFFF;align=center;spacing=5;arcSize=7;perimeterSpacing=2;" parent="1" vertex="1">
          <mxGeometry x="515.5" y="171" width="150" height="60" as="geometry" />
        </mxCell>
        <mxCell id="prWOM2Fcv-6kMDtfhxvp-1832" value="Швартовные тумбы" style="rounded=1;whiteSpace=wrap;html=1;shadow=0;labelBackgroundColor=none;strokeColor=#000000;strokeWidth=2;fillColor=#6CCBF5;fontFamily=Helvetica;fontSize=14;fontColor=#FFFFFF;align=center;spacing=5;arcSize=7;perimeterSpacing=2;" parent="1" vertex="1">
          <mxGeometry x="515.5" y="90" width="150" height="60" as="geometry" />
        </mxCell>
        <mxCell id="1762" value="Берегоукрепительные ветрикальные" style="rounded=1;whiteSpace=wrap;html=1;shadow=0;labelBackgroundColor=none;strokeColor=#000000;strokeWidth=2;fillColor=#64bbe2;fontFamily=Helvetica;fontSize=14;fontColor=#FFFFFF;align=center;spacing=5;arcSize=7;perimeterSpacing=2;" parent="1" vertex="1">
          <mxGeometry x="235" y="409.5" width="150" height="60" as="geometry" />
        </mxCell>
        <mxCell id="1763" value="Берегоукрепительные откосные" style="rounded=1;whiteSpace=wrap;html=1;shadow=0;labelBackgroundColor=none;strokeColor=#000000;strokeWidth=2;fillColor=#64bbe2;fontFamily=Helvetica;fontSize=14;fontColor=#FFFFFF;align=center;spacing=5;arcSize=7;perimeterSpacing=2;" parent="1" vertex="1">
          <mxGeometry x="235" y="489.5" width="150" height="60" as="geometry" />
        </mxCell>
        <mxCell id="prWOM2Fcv-6kMDtfhxvp-1779" value="Молы, пирсы" style="rounded=1;whiteSpace=wrap;html=1;shadow=0;labelBackgroundColor=none;strokeColor=#000000;strokeWidth=2;fillColor=#64bbe2;fontFamily=Helvetica;fontSize=14;fontColor=#FFFFFF;align=center;spacing=5;arcSize=7;perimeterSpacing=2;" parent="1" vertex="1">
          <mxGeometry x="235" y="569.5" width="150" height="60" as="geometry" />
        </mxCell>
        <mxCell id="prWOM2Fcv-6kMDtfhxvp-1792" style="edgeStyle=orthogonalEdgeStyle;rounded=1;orthogonalLoop=1;jettySize=auto;html=1;exitX=1;exitY=0.5;exitDx=0;exitDy=0;entryX=0;entryY=0.5;entryDx=0;entryDy=0;endArrow=classic;endFill=1;strokeWidth=2;" parent="1" source="prWOM2Fcv-6kMDtfhxvp-1786" target="prWOM2Fcv-6kMDtfhxvp-1790" edge="1">
          <mxGeometry relative="1" as="geometry" />
        </mxCell>
        <mxCell id="prWOM2Fcv-6kMDtfhxvp-1793" style="edgeStyle=orthogonalEdgeStyle;rounded=1;orthogonalLoop=1;jettySize=auto;html=1;exitX=1;exitY=0.5;exitDx=0;exitDy=0;entryX=0;entryY=0.5;entryDx=0;entryDy=0;endArrow=classic;endFill=1;strokeWidth=2;" parent="1" source="prWOM2Fcv-6kMDtfhxvp-1786" target="prWOM2Fcv-6kMDtfhxvp-1791" edge="1">
          <mxGeometry relative="1" as="geometry">
            <Array as="points">
              <mxPoint x="886" y="284" />
              <mxPoint x="913" y="284" />
              <mxPoint x="913" y="205" />
            </Array>
          </mxGeometry>
        </mxCell>
        <mxCell id="prWOM2Fcv-6kMDtfhxvp-1786" value="Нагрузка от навала судна" style="rounded=1;whiteSpace=wrap;html=1;shadow=0;labelBackgroundColor=none;strokeColor=#000000;strokeWidth=2;fillColor=#6CCBF5;fontFamily=Helvetica;fontSize=14;fontColor=#FFFFFF;align=center;spacing=5;arcSize=7;perimeterSpacing=2;" parent="1" vertex="1">
          <mxGeometry x="734" y="252" width="150" height="60" as="geometry" />
        </mxCell>
        <mxCell id="prWOM2Fcv-6kMDtfhxvp-1787" value="Расчет покрытия" style="rounded=1;whiteSpace=wrap;html=1;shadow=0;labelBackgroundColor=none;strokeColor=#000000;strokeWidth=2;fillColor=#6CCBF5;fontFamily=Helvetica;fontSize=14;fontColor=#FFFFFF;align=center;spacing=5;arcSize=7;perimeterSpacing=2;" parent="1" vertex="1">
          <mxGeometry x="733" y="171" width="150" height="60" as="geometry" />
        </mxCell>
        <mxCell id="prWOM2Fcv-6kMDtfhxvp-1790" value="При стоянке" style="rounded=1;whiteSpace=wrap;html=1;shadow=0;labelBackgroundColor=none;strokeColor=#000000;strokeWidth=2;fillColor=#6CCBF5;fontFamily=Helvetica;fontSize=14;fontColor=#FFFFFF;align=center;spacing=5;arcSize=7;perimeterSpacing=2;" parent="1" vertex="1">
          <mxGeometry x="953" y="252" width="150" height="60" as="geometry" />
        </mxCell>
        <mxCell id="prWOM2Fcv-6kMDtfhxvp-1794" style="edgeStyle=orthogonalEdgeStyle;rounded=1;orthogonalLoop=1;jettySize=auto;html=1;exitX=1;exitY=0.5;exitDx=0;exitDy=0;entryX=1;entryY=0.5;entryDx=0;entryDy=0;endArrow=none;endFill=0;strokeWidth=2;" parent="1" source="prWOM2Fcv-6kMDtfhxvp-1791" target="prWOM2Fcv-6kMDtfhxvp-1790" edge="1">
          <mxGeometry relative="1" as="geometry">
            <Array as="points">
              <mxPoint x="1120" y="205" />
              <mxPoint x="1120" y="282" />
            </Array>
          </mxGeometry>
        </mxCell>
        <mxCell id="prWOM2Fcv-6kMDtfhxvp-1798" style="edgeStyle=orthogonalEdgeStyle;rounded=1;orthogonalLoop=1;jettySize=auto;html=1;exitX=1;exitY=0.5;exitDx=0;exitDy=0;entryX=0;entryY=0.5;entryDx=0;entryDy=0;endArrow=classic;endFill=1;strokeWidth=2;" parent="1" source="prWOM2Fcv-6kMDtfhxvp-1791" target="prWOM2Fcv-6kMDtfhxvp-1795" edge="1">
          <mxGeometry relative="1" as="geometry" />
        </mxCell>
        <mxCell id="prWOM2Fcv-6kMDtfhxvp-1791" value="При подходе к сооружению" style="rounded=1;whiteSpace=wrap;html=1;shadow=0;labelBackgroundColor=none;strokeColor=#000000;strokeWidth=2;fillColor=#6CCBF5;fontFamily=Helvetica;fontSize=14;fontColor=#FFFFFF;align=center;spacing=5;arcSize=7;perimeterSpacing=2;" parent="1" vertex="1">
          <mxGeometry x="953" y="175" width="150" height="60" as="geometry" />
        </mxCell>
        <mxCell id="prWOM2Fcv-6kMDtfhxvp-1795" value="Подбор отбойных устройств" style="rounded=1;whiteSpace=wrap;html=1;shadow=0;labelBackgroundColor=none;strokeColor=#000000;strokeWidth=2;fillColor=#6CCBF5;fontFamily=Helvetica;fontSize=14;fontColor=#FFFFFF;align=center;spacing=5;arcSize=7;perimeterSpacing=2;" parent="1" vertex="1">
          <mxGeometry x="1153" y="175" width="150" height="60" as="geometry" />
        </mxCell>
        <mxCell id="prWOM2Fcv-6kMDtfhxvp-1802" style="edgeStyle=orthogonalEdgeStyle;rounded=1;orthogonalLoop=1;jettySize=auto;html=1;exitX=1;exitY=0.5;exitDx=0;exitDy=0;entryX=1;entryY=0.5;entryDx=0;entryDy=0;startArrow=classic;startFill=1;endArrow=classic;endFill=1;strokeWidth=2;" parent="1" source="prWOM2Fcv-6kMDtfhxvp-1799" target="1760" edge="1">
          <mxGeometry relative="1" as="geometry">
            <Array as="points">
              <mxPoint x="470" y="160" />
              <mxPoint x="470" y="315" />
            </Array>
          </mxGeometry>
        </mxCell>
        <mxCell id="prWOM2Fcv-6kMDtfhxvp-1799" value="Возможность входа и регистрации" style="rounded=1;whiteSpace=wrap;html=1;shadow=0;labelBackgroundColor=none;strokeColor=#000000;strokeWidth=2;fillColor=#F08705;fontFamily=Helvetica;fontSize=14;fontColor=#FFFFFF;align=center;spacing=5;fontStyle=1;arcSize=7;perimeterSpacing=2;" parent="1" vertex="1">
          <mxGeometry x="290" y="130" width="150" height="60" as="geometry" />
        </mxCell>
        <mxCell id="prWOM2Fcv-6kMDtfhxvp-1806" value="Крановые балки - моменты инерции и пр" style="rounded=1;whiteSpace=wrap;html=1;shadow=0;labelBackgroundColor=none;strokeColor=#000000;strokeWidth=2;fillColor=#6CCBF5;fontFamily=Helvetica;fontSize=14;fontColor=#FFFFFF;align=center;spacing=5;arcSize=7;perimeterSpacing=2;" parent="1" vertex="1">
          <mxGeometry x="515.5" y="489.5" width="150" height="60" as="geometry" />
        </mxCell>
        <mxCell id="prWOM2Fcv-6kMDtfhxvp-1807" value="Несущая способность свай (ГТС)" style="rounded=1;whiteSpace=wrap;html=1;shadow=0;labelBackgroundColor=none;strokeColor=#000000;strokeWidth=2;fillColor=#6CCBF5;fontFamily=Helvetica;fontSize=14;fontColor=#FFFFFF;align=center;spacing=5;arcSize=7;perimeterSpacing=2;" parent="1" vertex="1">
          <mxGeometry x="515.5" y="569.5" width="150" height="60" as="geometry" />
        </mxCell>
        <mxCell id="dELomnlCC_4B2R2-Pdj_-1779" style="edgeStyle=orthogonalEdgeStyle;rounded=1;comic=0;orthogonalLoop=1;jettySize=auto;html=1;exitX=1;exitY=0.5;exitDx=0;exitDy=0;startArrow=none;startFill=0;sourcePerimeterSpacing=0;endArrow=classic;endFill=1;strokeWidth=2;entryX=0;entryY=0.5;entryDx=0;entryDy=0;" edge="1" parent="1" target="dELomnlCC_4B2R2-Pdj_-1780" source="1761">
          <mxGeometry relative="1" as="geometry">
            <mxPoint x="460" y="620.5" as="targetPoint" />
            <Array as="points">
              <mxPoint x="490" y="360" />
              <mxPoint x="490" y="680" />
            </Array>
            <mxPoint x="387" y="440" as="sourcePoint" />
          </mxGeometry>
        </mxCell>
        <mxCell id="dELomnlCC_4B2R2-Pdj_-1780" value="Устойчивость по круглому циллиндру" style="rounded=1;whiteSpace=wrap;html=1;shadow=0;labelBackgroundColor=none;strokeColor=#000000;strokeWidth=2;fillColor=#6CCBF5;fontFamily=Helvetica;fontSize=14;fontColor=#FFFFFF;align=center;spacing=5;arcSize=7;perimeterSpacing=2;" vertex="1" parent="1">
          <mxGeometry x="515.5" y="650" width="150" height="60" as="geometry" />
        </mxCell>
      </root>
    </mxGraphModel>
  </diagram>
</mxfile>
